<svg width="28" height="28" viewBox="0 0 28 28" fill="none" xmlns="http://www.w3.org/2000/svg">

    <path d="M1.5 28C1.06667 28 0.708333 27.8583 0.425 27.575C0.141667 27.2917 0 26.9333 0 26.5V19.85C0 19.4167 0.141667 19.0583 0.425 18.775C0.708333 18.4917 1.06667 18.35 1.5 18.35C1.93333 18.35 2.29167 18.4917 2.575 18.775C2.85833 19.0583 3 19.4167 3 19.85V25H8.15C8.58333 25 8.94167 25.1417 9.225 25.425C9.50833 25.7083 9.65 26.0667 9.65 26.5C9.65 26.9333 9.50833 27.2917 9.225 27.575C8.94167 27.8583 8.58333 28 8.15 28H1.5ZM1.5 9.65C1.06667 9.65 0.708333 9.50833 0.425 9.225C0.141667 8.94167 0 8.58333 0 8.15V1.5C0 1.06667 0.141667 0.708333 0.425 0.425C0.708333 0.141667 1.06667 0 1.5 0H8.15C8.58333 0 8.94167 0.141667 9.225 0.425C9.50833 0.708333 9.65 1.06667 9.65 1.5C9.65 1.93333 9.50833 2.29167 9.225 2.575C8.94167 2.85833 8.58333 3 8.15 3H3V8.15C3 8.58333 2.85833 8.94167 2.575 9.225C2.29167 9.50833 1.93333 9.65 1.5 9.65ZM19.85 28C19.4167 28 19.0583 27.8583 18.775 27.575C18.4917 27.2917 18.35 26.9333 18.35 26.5C18.35 26.0667 18.4917 25.7083 18.775 25.425C19.0583 25.1417 19.4167 25 19.85 25H25V19.85C25 19.4167 25.1417 19.0583 25.425 18.775C25.7083 18.4917 26.0667 18.35 26.5 18.35C26.9333 18.35 27.2917 18.4917 27.575 18.775C27.8583 19.0583 28 19.4167 28 19.85V26.5C28 26.9333 27.8583 27.2917 27.575 27.575C27.2917 27.8583 26.9333 28 26.5 28H19.85ZM26.5 9.65C26.0667 9.65 25.7083 9.50833 25.425 9.225C25.1417 8.94167 25 8.58333 25 8.15V3H19.85C19.4167 3 19.0583 2.85833 18.775 2.575C18.4917 2.29167 18.35 1.93333 18.35 1.5C18.35 1.06667 18.4917 0.708333 18.775 0.425C19.0583 0.141667 19.4167 0 19.85 0H26.5C26.9333 0 27.2917 0.141667 27.575 0.425C27.8583 0.708333 28 1.06667 28 1.5V8.15C28 8.58333 27.8583 8.94167 27.575 9.225C27.2917 9.50833 26.9333 9.65 26.5 9.65Z" fill="#ffffff" />

</svg>