<svg width="28" height="28" viewBox="0 0 28 28" fill="none" xmlns="http://www.w3.org/2000/svg">

  <path d="M8.15 28C7.71667 28 7.35833 27.8583 7.075 27.575C6.79167 27.2917 6.65 26.9333 6.65 26.5V21.35H1.5C1.06667 21.35 0.708333 21.2083 0.425 20.925C0.141667 20.6417 0 20.2833 0 19.85C0 19.4167 0.141667 19.0583 0.425 18.775C0.708333 18.4917 1.06667 18.35 1.5 18.35H8.15C8.58333 18.35 8.94167 18.4917 9.225 18.775C9.50833 19.0583 9.65 19.4167 9.65 19.85V26.5C9.65 26.9333 9.50833 27.2917 9.225 27.575C8.94167 27.8583 8.58333 28 8.15 28ZM1.5 9.65C1.06667 9.65 0.708333 9.50833 0.425 9.225C0.141667 8.94167 0 8.58333 0 8.15C0 7.71667 0.141667 7.35833 0.425 7.075C0.708333 6.79167 1.06667 6.65 1.5 6.65H6.65V1.5C6.65 1.06667 6.79167 0.708333 7.075 0.425C7.35833 0.141667 7.71667 0 8.15 0C8.58333 0 8.94167 0.141667 9.225 0.425C9.50833 0.708333 9.65 1.06667 9.65 1.5V8.15C9.65 8.58333 9.50833 8.94167 9.225 9.225C8.94167 9.50833 8.58333 9.65 8.15 9.65H1.5ZM19.85 28C19.4167 28 19.0583 27.8583 18.775 27.575C18.4917 27.2917 18.35 26.9333 18.35 26.5V19.85C18.35 19.4167 18.4917 19.0583 18.775 18.775C19.0583 18.4917 19.4167 18.35 19.85 18.35H26.5C26.9333 18.35 27.2917 18.4917 27.575 18.775C27.8583 19.0583 28 19.4167 28 19.85C28 20.2833 27.8583 20.6417 27.575 20.925C27.2917 21.2083 26.9333 21.35 26.5 21.35H21.35V26.5C21.35 26.9333 21.2083 27.2917 20.925 27.575C20.6417 27.8583 20.2833 28 19.85 28ZM19.85 9.65C19.4167 9.65 19.0583 9.50833 18.775 9.225C18.4917 8.94167 18.35 8.58333 18.35 8.15V1.5C18.35 1.06667 18.4917 0.708333 18.775 0.425C19.0583 0.141667 19.4167 0 19.85 0C20.2833 0 20.6417 0.141667 20.925 0.425C21.2083 0.708333 21.35 1.06667 21.35 1.5V6.65H26.5C26.9333 6.65 27.2917 6.79167 27.575 7.075C27.8583 7.35833 28 7.71667 28 8.15C28 8.58333 27.8583 8.94167 27.575 9.225C27.2917 9.50833 26.9333 9.65 26.5 9.65H19.85Z" fill="#ffffff" />
  
</svg>
