<svg width="48" height="48" viewBox="0 0 48 48" fill="none" xmlns="http://www.w3.org/2000/svg">
<path d="M24 16.7188C22.5599 16.7188 21.1522 17.1458 19.9548 17.9459C18.7574 18.7459 17.8241 19.8831 17.273 21.2136C16.7219 22.5441 16.5777 24.0081 16.8587 25.4205C17.1396 26.8329 17.8331 28.1303 18.8514 29.1486C19.8697 30.1669 21.1671 30.8604 22.5795 31.1413C23.9919 31.4223 25.4559 31.2781 26.7864 30.727C28.1169 30.1759 29.2541 29.2426 30.0541 28.0452C30.8542 26.8479 31.2813 25.4401 31.2813 24C31.2813 22.0689 30.5141 20.2169 29.1486 18.8514C27.7831 17.4859 25.9311 16.7188 24 16.7188ZM24 29.0937C22.9926 29.0937 22.0077 28.795 21.1701 28.2353C20.3324 27.6756 19.6795 26.8801 19.294 25.9493C18.9085 25.0185 18.8076 23.9943 19.0041 23.0063C19.2007 22.0182 19.6858 21.1105 20.3982 20.3982C21.1106 19.6858 22.0182 19.2007 23.0063 19.0041C23.9944 18.8076 25.0185 18.9085 25.9493 19.294C26.8801 19.6795 27.6756 20.3324 28.2353 21.1701C28.795 22.0077 29.0938 22.9926 29.0938 24C29.0938 25.3509 28.5571 26.6466 27.6018 27.6018C26.6466 28.5571 25.3509 29.0937 24 29.0937Z" fill="white" stroke="white" stroke-width="0.5"/>
<mask id="path-2-outside-1_3549_325326" maskUnits="userSpaceOnUse" x="5" y="5" width="38" height="38" fill="black">
<rect fill="white" x="5" y="5" width="38" height="38"/>
<path d="M40.0312 19.5H37.5197C37.4612 19.4996 37.4043 19.4809 37.3569 19.4466C37.3095 19.4124 37.274 19.3642 37.2553 19.3088C37.0919 18.8445 36.9041 18.3892 36.6928 17.9447C36.6664 17.8922 36.6571 17.8328 36.6662 17.7748C36.6753 17.7168 36.7023 17.6631 36.7434 17.6213L38.5181 15.8438C38.701 15.6609 38.846 15.4439 38.945 15.205C39.0439 14.9661 39.0948 14.7101 39.0948 14.4516C39.0948 14.193 39.0439 13.937 38.945 13.6981C38.846 13.4592 38.701 13.2422 38.5181 13.0594L34.9378 9.48187C34.755 9.29904 34.538 9.154 34.2991 9.05505C34.0602 8.9561 33.8042 8.90517 33.5456 8.90517C33.2871 8.90517 33.031 8.9561 32.7922 9.05505C32.5533 9.154 32.3363 9.29904 32.1534 9.48187L30.3787 11.2566C30.3369 11.2977 30.2832 11.3247 30.2252 11.3338C30.1672 11.3429 30.1078 11.3336 30.0553 11.3072C29.6108 11.0958 29.1555 10.9081 28.6912 10.7447C28.6358 10.726 28.5876 10.6905 28.5534 10.6431C28.5191 10.5957 28.5004 10.5388 28.5 10.4803V7.96875C28.5 7.4466 28.2926 6.94585 27.9234 6.57663C27.5542 6.20742 27.0534 6 26.5312 6H21.4688C20.9466 6 20.4458 6.20742 20.0766 6.57663C19.7074 6.94585 19.5 7.4466 19.5 7.96875V10.4803C19.4996 10.5388 19.4809 10.5957 19.4466 10.6431C19.4124 10.6905 19.3642 10.726 19.3088 10.7447C18.8445 10.9081 18.3892 11.0959 17.9447 11.3072C17.8922 11.3336 17.8328 11.3429 17.7748 11.3338C17.7168 11.3247 17.6631 11.2977 17.6213 11.2566L15.8438 9.48187C15.6609 9.29904 15.4439 9.154 15.205 9.05505C14.9661 8.9561 14.7101 8.90517 14.4516 8.90517C14.193 8.90517 13.937 8.9561 13.6981 9.05505C13.4592 9.154 13.2422 9.29904 13.0594 9.48187L9.48187 13.0622C9.29904 13.245 9.154 13.462 9.05505 13.7009C8.9561 13.9398 8.90517 14.1958 8.90517 14.4544C8.90517 14.7129 8.9561 14.969 9.05505 15.2078C9.154 15.4467 9.29904 15.6637 9.48187 15.8466L11.2566 17.6213C11.2977 17.6631 11.3247 17.7168 11.3338 17.7748C11.3429 17.8328 11.3336 17.8922 11.3072 17.9447C11.0958 18.3892 10.9081 18.8445 10.7447 19.3088C10.726 19.3642 10.6905 19.4124 10.6431 19.4466C10.5957 19.4809 10.5388 19.4996 10.4803 19.5H7.96875C7.4466 19.5 6.94585 19.7074 6.57663 20.0766C6.20742 20.4458 6 20.9466 6 21.4688V26.5312C6 27.0534 6.20742 27.5542 6.57663 27.9234C6.94585 28.2926 7.4466 28.5 7.96875 28.5H10.4803C10.5388 28.5004 10.5957 28.5191 10.6431 28.5534C10.6905 28.5876 10.726 28.6358 10.7447 28.6912C10.9081 29.1555 11.0959 29.6108 11.3072 30.0553C11.3336 30.1078 11.3429 30.1672 11.3338 30.2252C11.3247 30.2832 11.2977 30.3369 11.2566 30.3787L9.48187 32.1562C9.29904 32.3391 9.154 32.5561 9.05505 32.795C8.9561 33.0339 8.90517 33.2899 8.90517 33.5484C8.90517 33.807 8.9561 34.063 9.05505 34.3019C9.154 34.5408 9.29904 34.7578 9.48187 34.9406L13.0622 38.5209C13.245 38.7038 13.462 38.8488 13.7009 38.9478C13.9398 39.0467 14.1958 39.0976 14.4544 39.0976C14.7129 39.0976 14.969 39.0467 15.2078 38.9478C15.4467 38.8488 15.6637 38.7038 15.8466 38.5209L17.6213 36.7463C17.6631 36.7051 17.7168 36.6781 17.7748 36.669C17.8328 36.6599 17.8922 36.6693 17.9447 36.6956C18.3892 36.907 18.8445 37.0947 19.3088 37.2581C19.3642 37.2768 19.4124 37.3124 19.4466 37.3597C19.4809 37.4071 19.4996 37.464 19.5 37.5225V40.0312C19.5 40.5534 19.7074 41.0542 20.0766 41.4234C20.4458 41.7926 20.9466 42 21.4688 42H26.5312C27.0534 42 27.5542 41.7926 27.9234 41.4234C28.2926 41.0542 28.5 40.5534 28.5 40.0312V37.5197C28.5004 37.4612 28.5191 37.4043 28.5534 37.3569C28.5876 37.3095 28.6358 37.274 28.6912 37.2553C29.1555 37.0919 29.6108 36.9041 30.0553 36.6928C30.1078 36.6664 30.1672 36.6571 30.2252 36.6662C30.2832 36.6753 30.3369 36.7023 30.3787 36.7434L32.1562 38.5181C32.3391 38.701 32.5561 38.846 32.795 38.945C33.0339 39.0439 33.2899 39.0948 33.5484 39.0948C33.807 39.0948 34.063 39.0439 34.3019 38.945C34.5408 38.846 34.7578 38.701 34.9406 38.5181L38.5209 34.9378C38.7038 34.755 38.8488 34.538 38.9478 34.2991C39.0467 34.0602 39.0976 33.8042 39.0976 33.5456C39.0976 33.2871 39.0467 33.031 38.9478 32.7922C38.8488 32.5533 38.7038 32.3363 38.5209 32.1534L36.7463 30.3787C36.7051 30.3369 36.6781 30.2832 36.669 30.2252C36.6599 30.1672 36.6693 30.1078 36.6956 30.0553C36.907 29.6108 37.0947 29.1555 37.2581 28.6912C37.2768 28.6358 37.3124 28.5876 37.3597 28.5534C37.4071 28.5191 37.464 28.5004 37.5225 28.5H40.0312C40.5534 28.5 41.0542 28.2926 41.4234 27.9234C41.7926 27.5542 42 27.0534 42 26.5312V21.4688C42 20.9466 41.7926 20.4458 41.4234 20.0766C41.0542 19.7074 40.5534 19.5 40.0312 19.5ZM40.3125 26.5312C40.3125 26.6058 40.2829 26.6774 40.2301 26.7301C40.1774 26.7829 40.1058 26.8125 40.0312 26.8125H37.5197C37.1118 26.813 36.714 26.9401 36.3815 27.1764C36.049 27.4127 35.7981 27.7465 35.6634 28.1316C35.5195 28.5393 35.3543 28.9393 35.1684 29.3297C34.9902 29.6977 34.931 30.1121 34.9991 30.5153C35.0671 30.9185 35.259 31.2905 35.5481 31.5797L37.3228 33.3544C37.3752 33.4071 37.4046 33.4784 37.4046 33.5527C37.4046 33.627 37.3752 33.6982 37.3228 33.7509L33.7453 37.3256C33.6926 37.378 33.6213 37.4074 33.547 37.4074C33.4727 37.4074 33.4014 37.378 33.3487 37.3256L31.5741 35.5509C31.2849 35.2618 30.9129 35.0699 30.5097 35.0019C30.1065 34.9338 29.6921 34.993 29.3241 35.1712C28.9327 35.3572 28.5319 35.5224 28.1231 35.6663C27.7386 35.8013 27.4054 36.0525 27.1697 36.3849C26.9339 36.7174 26.8071 37.1149 26.8069 37.5225V40.0312C26.8069 40.1058 26.7772 40.1774 26.7245 40.2301C26.6718 40.2829 26.6002 40.3125 26.5256 40.3125H21.4688C21.3942 40.3125 21.3226 40.2829 21.2699 40.2301C21.2171 40.1774 21.1875 40.1058 21.1875 40.0312V37.5197C21.187 37.1118 21.0599 36.714 20.8236 36.3815C20.5873 36.049 20.2535 35.7981 19.8684 35.6634C19.4607 35.5195 19.0607 35.3543 18.6703 35.1684C18.3023 34.9902 17.8879 34.931 17.4847 34.9991C17.0815 35.0671 16.7095 35.259 16.4203 35.5481L14.6456 37.3228C14.5929 37.3752 14.5216 37.4046 14.4473 37.4046C14.373 37.4046 14.3018 37.3752 14.2491 37.3228L10.6744 33.7453C10.622 33.6926 10.5926 33.6213 10.5926 33.547C10.5926 33.4727 10.622 33.4014 10.6744 33.3487L12.4491 31.5741C12.7382 31.2849 12.9301 30.9129 12.9981 30.5097C13.0662 30.1065 13.007 29.6921 12.8288 29.3241C12.6428 28.9327 12.4776 28.5319 12.3338 28.1231C12.1979 27.7401 11.9468 27.4085 11.6149 27.1738C11.2831 26.9391 10.8867 26.8129 10.4803 26.8125H7.96875C7.89416 26.8125 7.82262 26.7829 7.76988 26.7301C7.71713 26.6774 7.6875 26.6058 7.6875 26.5312V21.4688C7.6875 21.3942 7.71713 21.3226 7.76988 21.2699C7.82262 21.2171 7.89416 21.1875 7.96875 21.1875H10.4803C10.8882 21.187 11.286 21.0599 11.6185 20.8236C11.951 20.5873 12.2019 20.2535 12.3366 19.8684C12.4805 19.4607 12.6457 19.0607 12.8316 18.6703C13.0098 18.3023 13.069 17.8879 13.0009 17.4847C12.9329 17.0815 12.741 16.7095 12.4519 16.4203L10.6772 14.6456C10.6248 14.5929 10.5954 14.5216 10.5954 14.4473C10.5954 14.373 10.6248 14.3018 10.6772 14.2491L14.2547 10.6744C14.3074 10.622 14.3787 10.5926 14.453 10.5926C14.5273 10.5926 14.5986 10.622 14.6512 10.6744L16.4259 12.4491C16.7151 12.7382 17.0871 12.9301 17.4903 12.9981C17.8935 13.0662 18.3079 13.007 18.6759 12.8288C19.0673 12.6428 19.4682 12.4776 19.8769 12.3338C20.2599 12.1979 20.5915 11.9468 20.8262 11.6149C21.0609 11.2831 21.1871 10.8867 21.1875 10.4803V7.96875C21.1875 7.89416 21.2171 7.82262 21.2699 7.76988C21.3226 7.71713 21.3942 7.6875 21.4688 7.6875H26.5312C26.6058 7.6875 26.6774 7.71713 26.7301 7.76988C26.7829 7.82262 26.8125 7.89416 26.8125 7.96875V10.4803C26.813 10.8882 26.9401 11.286 27.1764 11.6185C27.4127 11.951 27.7465 12.2019 28.1316 12.3366C28.5393 12.4805 28.9393 12.6457 29.3297 12.8316C29.6977 13.0098 30.1121 13.069 30.5153 13.0009C30.9185 12.9329 31.2905 12.741 31.5797 12.4519L33.3544 10.6772C33.4071 10.6248 33.4784 10.5954 33.5527 10.5954C33.627 10.5954 33.6982 10.6248 33.7509 10.6772L37.3313 14.2575C37.3836 14.3102 37.413 14.3815 37.413 14.4558C37.413 14.5301 37.3836 14.6014 37.3313 14.6541L35.5566 16.4288C35.2675 16.7179 35.0756 17.0899 35.0075 17.4931C34.9395 17.8963 34.9987 18.3107 35.1769 18.6788C35.3628 19.0701 35.5281 19.471 35.6719 19.8797C35.807 20.2642 36.0581 20.5974 36.3906 20.8332C36.7231 21.0689 37.1205 21.1957 37.5281 21.1959H40.0312C40.1058 21.1959 40.1774 21.2256 40.2301 21.2783C40.2829 21.3311 40.3125 21.4026 40.3125 21.4772V26.5312Z"/>
</mask>
<path d="M40.0312 19.5H37.5197C37.4612 19.4996 37.4043 19.4809 37.3569 19.4466C37.3095 19.4124 37.274 19.3642 37.2553 19.3088C37.0919 18.8445 36.9041 18.3892 36.6928 17.9447C36.6664 17.8922 36.6571 17.8328 36.6662 17.7748C36.6753 17.7168 36.7023 17.6631 36.7434 17.6213L38.5181 15.8438C38.701 15.6609 38.846 15.4439 38.945 15.205C39.0439 14.9661 39.0948 14.7101 39.0948 14.4516C39.0948 14.193 39.0439 13.937 38.945 13.6981C38.846 13.4592 38.701 13.2422 38.5181 13.0594L34.9378 9.48187C34.755 9.29904 34.538 9.154 34.2991 9.05505C34.0602 8.9561 33.8042 8.90517 33.5456 8.90517C33.2871 8.90517 33.031 8.9561 32.7922 9.05505C32.5533 9.154 32.3363 9.29904 32.1534 9.48187L30.3787 11.2566C30.3369 11.2977 30.2832 11.3247 30.2252 11.3338C30.1672 11.3429 30.1078 11.3336 30.0553 11.3072C29.6108 11.0958 29.1555 10.9081 28.6912 10.7447C28.6358 10.726 28.5876 10.6905 28.5534 10.6431C28.5191 10.5957 28.5004 10.5388 28.5 10.4803V7.96875C28.5 7.4466 28.2926 6.94585 27.9234 6.57663C27.5542 6.20742 27.0534 6 26.5312 6H21.4688C20.9466 6 20.4458 6.20742 20.0766 6.57663C19.7074 6.94585 19.5 7.4466 19.5 7.96875V10.4803C19.4996 10.5388 19.4809 10.5957 19.4466 10.6431C19.4124 10.6905 19.3642 10.726 19.3088 10.7447C18.8445 10.9081 18.3892 11.0959 17.9447 11.3072C17.8922 11.3336 17.8328 11.3429 17.7748 11.3338C17.7168 11.3247 17.6631 11.2977 17.6213 11.2566L15.8438 9.48187C15.6609 9.29904 15.4439 9.154 15.205 9.05505C14.9661 8.9561 14.7101 8.90517 14.4516 8.90517C14.193 8.90517 13.937 8.9561 13.6981 9.05505C13.4592 9.154 13.2422 9.29904 13.0594 9.48187L9.48187 13.0622C9.29904 13.245 9.154 13.462 9.05505 13.7009C8.9561 13.9398 8.90517 14.1958 8.90517 14.4544C8.90517 14.7129 8.9561 14.969 9.05505 15.2078C9.154 15.4467 9.29904 15.6637 9.48187 15.8466L11.2566 17.6213C11.2977 17.6631 11.3247 17.7168 11.3338 17.7748C11.3429 17.8328 11.3336 17.8922 11.3072 17.9447C11.0958 18.3892 10.9081 18.8445 10.7447 19.3088C10.726 19.3642 10.6905 19.4124 10.6431 19.4466C10.5957 19.4809 10.5388 19.4996 10.4803 19.5H7.96875C7.4466 19.5 6.94585 19.7074 6.57663 20.0766C6.20742 20.4458 6 20.9466 6 21.4688V26.5312C6 27.0534 6.20742 27.5542 6.57663 27.9234C6.94585 28.2926 7.4466 28.5 7.96875 28.5H10.4803C10.5388 28.5004 10.5957 28.5191 10.6431 28.5534C10.6905 28.5876 10.726 28.6358 10.7447 28.6912C10.9081 29.1555 11.0959 29.6108 11.3072 30.0553C11.3336 30.1078 11.3429 30.1672 11.3338 30.2252C11.3247 30.2832 11.2977 30.3369 11.2566 30.3787L9.48187 32.1562C9.29904 32.3391 9.154 32.5561 9.05505 32.795C8.9561 33.0339 8.90517 33.2899 8.90517 33.5484C8.90517 33.807 8.9561 34.063 9.05505 34.3019C9.154 34.5408 9.29904 34.7578 9.48187 34.9406L13.0622 38.5209C13.245 38.7038 13.462 38.8488 13.7009 38.9478C13.9398 39.0467 14.1958 39.0976 14.4544 39.0976C14.7129 39.0976 14.969 39.0467 15.2078 38.9478C15.4467 38.8488 15.6637 38.7038 15.8466 38.5209L17.6213 36.7463C17.6631 36.7051 17.7168 36.6781 17.7748 36.669C17.8328 36.6599 17.8922 36.6693 17.9447 36.6956C18.3892 36.907 18.8445 37.0947 19.3088 37.2581C19.3642 37.2768 19.4124 37.3124 19.4466 37.3597C19.4809 37.4071 19.4996 37.464 19.5 37.5225V40.0312C19.5 40.5534 19.7074 41.0542 20.0766 41.4234C20.4458 41.7926 20.9466 42 21.4688 42H26.5312C27.0534 42 27.5542 41.7926 27.9234 41.4234C28.2926 41.0542 28.5 40.5534 28.5 40.0312V37.5197C28.5004 37.4612 28.5191 37.4043 28.5534 37.3569C28.5876 37.3095 28.6358 37.274 28.6912 37.2553C29.1555 37.0919 29.6108 36.9041 30.0553 36.6928C30.1078 36.6664 30.1672 36.6571 30.2252 36.6662C30.2832 36.6753 30.3369 36.7023 30.3787 36.7434L32.1562 38.5181C32.3391 38.701 32.5561 38.846 32.795 38.945C33.0339 39.0439 33.2899 39.0948 33.5484 39.0948C33.807 39.0948 34.063 39.0439 34.3019 38.945C34.5408 38.846 34.7578 38.701 34.9406 38.5181L38.5209 34.9378C38.7038 34.755 38.8488 34.538 38.9478 34.2991C39.0467 34.0602 39.0976 33.8042 39.0976 33.5456C39.0976 33.2871 39.0467 33.031 38.9478 32.7922C38.8488 32.5533 38.7038 32.3363 38.5209 32.1534L36.7463 30.3787C36.7051 30.3369 36.6781 30.2832 36.669 30.2252C36.6599 30.1672 36.6693 30.1078 36.6956 30.0553C36.907 29.6108 37.0947 29.1555 37.2581 28.6912C37.2768 28.6358 37.3124 28.5876 37.3597 28.5534C37.4071 28.5191 37.464 28.5004 37.5225 28.5H40.0312C40.5534 28.5 41.0542 28.2926 41.4234 27.9234C41.7926 27.5542 42 27.0534 42 26.5312V21.4688C42 20.9466 41.7926 20.4458 41.4234 20.0766C41.0542 19.7074 40.5534 19.5 40.0312 19.5ZM40.3125 26.5312C40.3125 26.6058 40.2829 26.6774 40.2301 26.7301C40.1774 26.7829 40.1058 26.8125 40.0312 26.8125H37.5197C37.1118 26.813 36.714 26.9401 36.3815 27.1764C36.049 27.4127 35.7981 27.7465 35.6634 28.1316C35.5195 28.5393 35.3543 28.9393 35.1684 29.3297C34.9902 29.6977 34.931 30.1121 34.9991 30.5153C35.0671 30.9185 35.259 31.2905 35.5481 31.5797L37.3228 33.3544C37.3752 33.4071 37.4046 33.4784 37.4046 33.5527C37.4046 33.627 37.3752 33.6982 37.3228 33.7509L33.7453 37.3256C33.6926 37.378 33.6213 37.4074 33.547 37.4074C33.4727 37.4074 33.4014 37.378 33.3487 37.3256L31.5741 35.5509C31.2849 35.2618 30.9129 35.0699 30.5097 35.0019C30.1065 34.9338 29.6921 34.993 29.3241 35.1712C28.9327 35.3572 28.5319 35.5224 28.1231 35.6663C27.7386 35.8013 27.4054 36.0525 27.1697 36.3849C26.9339 36.7174 26.8071 37.1149 26.8069 37.5225V40.0312C26.8069 40.1058 26.7772 40.1774 26.7245 40.2301C26.6718 40.2829 26.6002 40.3125 26.5256 40.3125H21.4688C21.3942 40.3125 21.3226 40.2829 21.2699 40.2301C21.2171 40.1774 21.1875 40.1058 21.1875 40.0312V37.5197C21.187 37.1118 21.0599 36.714 20.8236 36.3815C20.5873 36.049 20.2535 35.7981 19.8684 35.6634C19.4607 35.5195 19.0607 35.3543 18.6703 35.1684C18.3023 34.9902 17.8879 34.931 17.4847 34.9991C17.0815 35.0671 16.7095 35.259 16.4203 35.5481L14.6456 37.3228C14.5929 37.3752 14.5216 37.4046 14.4473 37.4046C14.373 37.4046 14.3018 37.3752 14.2491 37.3228L10.6744 33.7453C10.622 33.6926 10.5926 33.6213 10.5926 33.547C10.5926 33.4727 10.622 33.4014 10.6744 33.3487L12.4491 31.5741C12.7382 31.2849 12.9301 30.9129 12.9981 30.5097C13.0662 30.1065 13.007 29.6921 12.8288 29.3241C12.6428 28.9327 12.4776 28.5319 12.3338 28.1231C12.1979 27.7401 11.9468 27.4085 11.6149 27.1738C11.2831 26.9391 10.8867 26.8129 10.4803 26.8125H7.96875C7.89416 26.8125 7.82262 26.7829 7.76988 26.7301C7.71713 26.6774 7.6875 26.6058 7.6875 26.5312V21.4688C7.6875 21.3942 7.71713 21.3226 7.76988 21.2699C7.82262 21.2171 7.89416 21.1875 7.96875 21.1875H10.4803C10.8882 21.187 11.286 21.0599 11.6185 20.8236C11.951 20.5873 12.2019 20.2535 12.3366 19.8684C12.4805 19.4607 12.6457 19.0607 12.8316 18.6703C13.0098 18.3023 13.069 17.8879 13.0009 17.4847C12.9329 17.0815 12.741 16.7095 12.4519 16.4203L10.6772 14.6456C10.6248 14.5929 10.5954 14.5216 10.5954 14.4473C10.5954 14.373 10.6248 14.3018 10.6772 14.2491L14.2547 10.6744C14.3074 10.622 14.3787 10.5926 14.453 10.5926C14.5273 10.5926 14.5986 10.622 14.6512 10.6744L16.4259 12.4491C16.7151 12.7382 17.0871 12.9301 17.4903 12.9981C17.8935 13.0662 18.3079 13.007 18.6759 12.8288C19.0673 12.6428 19.4682 12.4776 19.8769 12.3338C20.2599 12.1979 20.5915 11.9468 20.8262 11.6149C21.0609 11.2831 21.1871 10.8867 21.1875 10.4803V7.96875C21.1875 7.89416 21.2171 7.82262 21.2699 7.76988C21.3226 7.71713 21.3942 7.6875 21.4688 7.6875H26.5312C26.6058 7.6875 26.6774 7.71713 26.7301 7.76988C26.7829 7.82262 26.8125 7.89416 26.8125 7.96875V10.4803C26.813 10.8882 26.9401 11.286 27.1764 11.6185C27.4127 11.951 27.7465 12.2019 28.1316 12.3366C28.5393 12.4805 28.9393 12.6457 29.3297 12.8316C29.6977 13.0098 30.1121 13.069 30.5153 13.0009C30.9185 12.9329 31.2905 12.741 31.5797 12.4519L33.3544 10.6772C33.4071 10.6248 33.4784 10.5954 33.5527 10.5954C33.627 10.5954 33.6982 10.6248 33.7509 10.6772L37.3313 14.2575C37.3836 14.3102 37.413 14.3815 37.413 14.4558C37.413 14.5301 37.3836 14.6014 37.3313 14.6541L35.5566 16.4288C35.2675 16.7179 35.0756 17.0899 35.0075 17.4931C34.9395 17.8963 34.9987 18.3107 35.1769 18.6788C35.3628 19.0701 35.5281 19.471 35.6719 19.8797C35.807 20.2642 36.0581 20.5974 36.3906 20.8332C36.7231 21.0689 37.1205 21.1957 37.5281 21.1959H40.0312C40.1058 21.1959 40.1774 21.2256 40.2301 21.2783C40.2829 21.3311 40.3125 21.4026 40.3125 21.4772V26.5312Z" fill="white"/>
<path d="M40.0312 19.5H37.5197C37.4612 19.4996 37.4043 19.4809 37.3569 19.4466C37.3095 19.4124 37.274 19.3642 37.2553 19.3088C37.0919 18.8445 36.9041 18.3892 36.6928 17.9447C36.6664 17.8922 36.6571 17.8328 36.6662 17.7748C36.6753 17.7168 36.7023 17.6631 36.7434 17.6213L38.5181 15.8438C38.701 15.6609 38.846 15.4439 38.945 15.205C39.0439 14.9661 39.0948 14.7101 39.0948 14.4516C39.0948 14.193 39.0439 13.937 38.945 13.6981C38.846 13.4592 38.701 13.2422 38.5181 13.0594L34.9378 9.48187C34.755 9.29904 34.538 9.154 34.2991 9.05505C34.0602 8.9561 33.8042 8.90517 33.5456 8.90517C33.2871 8.90517 33.031 8.9561 32.7922 9.05505C32.5533 9.154 32.3363 9.29904 32.1534 9.48187L30.3787 11.2566C30.3369 11.2977 30.2832 11.3247 30.2252 11.3338C30.1672 11.3429 30.1078 11.3336 30.0553 11.3072C29.6108 11.0958 29.1555 10.9081 28.6912 10.7447C28.6358 10.726 28.5876 10.6905 28.5534 10.6431C28.5191 10.5957 28.5004 10.5388 28.5 10.4803V7.96875C28.5 7.4466 28.2926 6.94585 27.9234 6.57663C27.5542 6.20742 27.0534 6 26.5312 6H21.4688C20.9466 6 20.4458 6.20742 20.0766 6.57663C19.7074 6.94585 19.5 7.4466 19.5 7.96875V10.4803C19.4996 10.5388 19.4809 10.5957 19.4466 10.6431C19.4124 10.6905 19.3642 10.726 19.3088 10.7447C18.8445 10.9081 18.3892 11.0959 17.9447 11.3072C17.8922 11.3336 17.8328 11.3429 17.7748 11.3338C17.7168 11.3247 17.6631 11.2977 17.6213 11.2566L15.8438 9.48187C15.6609 9.29904 15.4439 9.154 15.205 9.05505C14.9661 8.9561 14.7101 8.90517 14.4516 8.90517C14.193 8.90517 13.937 8.9561 13.6981 9.05505C13.4592 9.154 13.2422 9.29904 13.0594 9.48187L9.48187 13.0622C9.29904 13.245 9.154 13.462 9.05505 13.7009C8.9561 13.9398 8.90517 14.1958 8.90517 14.4544C8.90517 14.7129 8.9561 14.969 9.05505 15.2078C9.154 15.4467 9.29904 15.6637 9.48187 15.8466L11.2566 17.6213C11.2977 17.6631 11.3247 17.7168 11.3338 17.7748C11.3429 17.8328 11.3336 17.8922 11.3072 17.9447C11.0958 18.3892 10.9081 18.8445 10.7447 19.3088C10.726 19.3642 10.6905 19.4124 10.6431 19.4466C10.5957 19.4809 10.5388 19.4996 10.4803 19.5H7.96875C7.4466 19.5 6.94585 19.7074 6.57663 20.0766C6.20742 20.4458 6 20.9466 6 21.4688V26.5312C6 27.0534 6.20742 27.5542 6.57663 27.9234C6.94585 28.2926 7.4466 28.5 7.96875 28.5H10.4803C10.5388 28.5004 10.5957 28.5191 10.6431 28.5534C10.6905 28.5876 10.726 28.6358 10.7447 28.6912C10.9081 29.1555 11.0959 29.6108 11.3072 30.0553C11.3336 30.1078 11.3429 30.1672 11.3338 30.2252C11.3247 30.2832 11.2977 30.3369 11.2566 30.3787L9.48187 32.1562C9.29904 32.3391 9.154 32.5561 9.05505 32.795C8.9561 33.0339 8.90517 33.2899 8.90517 33.5484C8.90517 33.807 8.9561 34.063 9.05505 34.3019C9.154 34.5408 9.29904 34.7578 9.48187 34.9406L13.0622 38.5209C13.245 38.7038 13.462 38.8488 13.7009 38.9478C13.9398 39.0467 14.1958 39.0976 14.4544 39.0976C14.7129 39.0976 14.969 39.0467 15.2078 38.9478C15.4467 38.8488 15.6637 38.7038 15.8466 38.5209L17.6213 36.7463C17.6631 36.7051 17.7168 36.6781 17.7748 36.669C17.8328 36.6599 17.8922 36.6693 17.9447 36.6956C18.3892 36.907 18.8445 37.0947 19.3088 37.2581C19.3642 37.2768 19.4124 37.3124 19.4466 37.3597C19.4809 37.4071 19.4996 37.464 19.5 37.5225V40.0312C19.5 40.5534 19.7074 41.0542 20.0766 41.4234C20.4458 41.7926 20.9466 42 21.4688 42H26.5312C27.0534 42 27.5542 41.7926 27.9234 41.4234C28.2926 41.0542 28.5 40.5534 28.5 40.0312V37.5197C28.5004 37.4612 28.5191 37.4043 28.5534 37.3569C28.5876 37.3095 28.6358 37.274 28.6912 37.2553C29.1555 37.0919 29.6108 36.9041 30.0553 36.6928C30.1078 36.6664 30.1672 36.6571 30.2252 36.6662C30.2832 36.6753 30.3369 36.7023 30.3787 36.7434L32.1562 38.5181C32.3391 38.701 32.5561 38.846 32.795 38.945C33.0339 39.0439 33.2899 39.0948 33.5484 39.0948C33.807 39.0948 34.063 39.0439 34.3019 38.945C34.5408 38.846 34.7578 38.701 34.9406 38.5181L38.5209 34.9378C38.7038 34.755 38.8488 34.538 38.9478 34.2991C39.0467 34.0602 39.0976 33.8042 39.0976 33.5456C39.0976 33.2871 39.0467 33.031 38.9478 32.7922C38.8488 32.5533 38.7038 32.3363 38.5209 32.1534L36.7463 30.3787C36.7051 30.3369 36.6781 30.2832 36.669 30.2252C36.6599 30.1672 36.6693 30.1078 36.6956 30.0553C36.907 29.6108 37.0947 29.1555 37.2581 28.6912C37.2768 28.6358 37.3124 28.5876 37.3597 28.5534C37.4071 28.5191 37.464 28.5004 37.5225 28.5H40.0312C40.5534 28.5 41.0542 28.2926 41.4234 27.9234C41.7926 27.5542 42 27.0534 42 26.5312V21.4688C42 20.9466 41.7926 20.4458 41.4234 20.0766C41.0542 19.7074 40.5534 19.5 40.0312 19.5ZM40.3125 26.5312C40.3125 26.6058 40.2829 26.6774 40.2301 26.7301C40.1774 26.7829 40.1058 26.8125 40.0312 26.8125H37.5197C37.1118 26.813 36.714 26.9401 36.3815 27.1764C36.049 27.4127 35.7981 27.7465 35.6634 28.1316C35.5195 28.5393 35.3543 28.9393 35.1684 29.3297C34.9902 29.6977 34.931 30.1121 34.9991 30.5153C35.0671 30.9185 35.259 31.2905 35.5481 31.5797L37.3228 33.3544C37.3752 33.4071 37.4046 33.4784 37.4046 33.5527C37.4046 33.627 37.3752 33.6982 37.3228 33.7509L33.7453 37.3256C33.6926 37.378 33.6213 37.4074 33.547 37.4074C33.4727 37.4074 33.4014 37.378 33.3487 37.3256L31.5741 35.5509C31.2849 35.2618 30.9129 35.0699 30.5097 35.0019C30.1065 34.9338 29.6921 34.993 29.3241 35.1712C28.9327 35.3572 28.5319 35.5224 28.1231 35.6663C27.7386 35.8013 27.4054 36.0525 27.1697 36.3849C26.9339 36.7174 26.8071 37.1149 26.8069 37.5225V40.0312C26.8069 40.1058 26.7772 40.1774 26.7245 40.2301C26.6718 40.2829 26.6002 40.3125 26.5256 40.3125H21.4688C21.3942 40.3125 21.3226 40.2829 21.2699 40.2301C21.2171 40.1774 21.1875 40.1058 21.1875 40.0312V37.5197C21.187 37.1118 21.0599 36.714 20.8236 36.3815C20.5873 36.049 20.2535 35.7981 19.8684 35.6634C19.4607 35.5195 19.0607 35.3543 18.6703 35.1684C18.3023 34.9902 17.8879 34.931 17.4847 34.9991C17.0815 35.0671 16.7095 35.259 16.4203 35.5481L14.6456 37.3228C14.5929 37.3752 14.5216 37.4046 14.4473 37.4046C14.373 37.4046 14.3018 37.3752 14.2491 37.3228L10.6744 33.7453C10.622 33.6926 10.5926 33.6213 10.5926 33.547C10.5926 33.4727 10.622 33.4014 10.6744 33.3487L12.4491 31.5741C12.7382 31.2849 12.9301 30.9129 12.9981 30.5097C13.0662 30.1065 13.007 29.6921 12.8288 29.3241C12.6428 28.9327 12.4776 28.5319 12.3338 28.1231C12.1979 27.7401 11.9468 27.4085 11.6149 27.1738C11.2831 26.9391 10.8867 26.8129 10.4803 26.8125H7.96875C7.89416 26.8125 7.82262 26.7829 7.76988 26.7301C7.71713 26.6774 7.6875 26.6058 7.6875 26.5312V21.4688C7.6875 21.3942 7.71713 21.3226 7.76988 21.2699C7.82262 21.2171 7.89416 21.1875 7.96875 21.1875H10.4803C10.8882 21.187 11.286 21.0599 11.6185 20.8236C11.951 20.5873 12.2019 20.2535 12.3366 19.8684C12.4805 19.4607 12.6457 19.0607 12.8316 18.6703C13.0098 18.3023 13.069 17.8879 13.0009 17.4847C12.9329 17.0815 12.741 16.7095 12.4519 16.4203L10.6772 14.6456C10.6248 14.5929 10.5954 14.5216 10.5954 14.4473C10.5954 14.373 10.6248 14.3018 10.6772 14.2491L14.2547 10.6744C14.3074 10.622 14.3787 10.5926 14.453 10.5926C14.5273 10.5926 14.5986 10.622 14.6512 10.6744L16.4259 12.4491C16.7151 12.7382 17.0871 12.9301 17.4903 12.9981C17.8935 13.0662 18.3079 13.007 18.6759 12.8288C19.0673 12.6428 19.4682 12.4776 19.8769 12.3338C20.2599 12.1979 20.5915 11.9468 20.8262 11.6149C21.0609 11.2831 21.1871 10.8867 21.1875 10.4803V7.96875C21.1875 7.89416 21.2171 7.82262 21.2699 7.76988C21.3226 7.71713 21.3942 7.6875 21.4688 7.6875H26.5312C26.6058 7.6875 26.6774 7.71713 26.7301 7.76988C26.7829 7.82262 26.8125 7.89416 26.8125 7.96875V10.4803C26.813 10.8882 26.9401 11.286 27.1764 11.6185C27.4127 11.951 27.7465 12.2019 28.1316 12.3366C28.5393 12.4805 28.9393 12.6457 29.3297 12.8316C29.6977 13.0098 30.1121 13.069 30.5153 13.0009C30.9185 12.9329 31.2905 12.741 31.5797 12.4519L33.3544 10.6772C33.4071 10.6248 33.4784 10.5954 33.5527 10.5954C33.627 10.5954 33.6982 10.6248 33.7509 10.6772L37.3313 14.2575C37.3836 14.3102 37.413 14.3815 37.413 14.4558C37.413 14.5301 37.3836 14.6014 37.3313 14.6541L35.5566 16.4288C35.2675 16.7179 35.0756 17.0899 35.0075 17.4931C34.9395 17.8963 34.9987 18.3107 35.1769 18.6788C35.3628 19.0701 35.5281 19.471 35.6719 19.8797C35.807 20.2642 36.0581 20.5974 36.3906 20.8332C36.7231 21.0689 37.1205 21.1957 37.5281 21.1959H40.0312C40.1058 21.1959 40.1774 21.2256 40.2301 21.2783C40.2829 21.3311 40.3125 21.4026 40.3125 21.4772V26.5312Z" stroke="white" mask="url(#path-2-outside-1_3549_325326)"/>
</svg>
