<svg width="36.11" height="28.16" viewBox="0 0 40 40" fill="none" xmlns="http://www.w3.org/2000/svg">

<path d="M36.55 39.0999L31.05 33.5999C30.3834 34.0666 29.6917 34.4916 28.975 34.875C28.2584 35.2583 27.5167 35.5833 26.75 35.8499C26.2167 36.0166 25.7334 35.9333 25.3 35.5999C24.8667 35.2666 24.65 34.8166 24.65 34.25C24.65 33.9833 24.725 33.7416 24.875 33.525C25.025 33.3083 25.2334 33.1666 25.5 33.0999C26.1 32.8999 26.6917 32.6666 27.275 32.4C27.8584 32.1333 28.4 31.8166 28.9 31.45L20.65 23.15V31.4C20.65 32.0666 20.3417 32.525 19.725 32.775C19.1084 33.025 18.5667 32.9166 18.1 32.45L10.65 25H4.15005C3.71671 25 3.35838 24.8583 3.07505 24.575C2.79171 24.2916 2.65005 23.9333 2.65005 23.5V14.5C2.65005 14.0666 2.79171 13.7083 3.07505 13.425C3.35838 13.1416 3.71671 13 4.15005 13H10.45L0.500046 3.04995C0.200046 2.74995 0.0583796 2.39162 0.0750463 1.97495C0.0917129 1.55828 0.250046 1.19995 0.550046 0.899951C0.850046 0.599951 1.20005 0.449951 1.60005 0.449951C2.00005 0.449951 2.35005 0.599951 2.65005 0.899951L38.75 36.95C39.05 37.25 39.2 37.6083 39.2 38.025C39.2 38.4416 39.05 38.7999 38.75 39.0999C38.45 39.3999 38.0834 39.5499 37.65 39.5499C37.2167 39.5499 36.85 39.3999 36.55 39.0999ZM26.75 2.04995C30.3167 3.31662 33.1917 5.49162 35.375 8.57495C37.5584 11.6583 38.65 15.1166 38.65 18.95C38.65 20.65 38.4167 22.3166 37.95 23.95C37.4834 25.5833 36.7834 27.1333 35.85 28.5999L33.7 26.45C34.3667 25.3166 34.8584 24.1166 35.175 22.85C35.4917 21.5833 35.65 20.2833 35.65 18.95C35.65 15.65 34.725 12.6833 32.875 10.05C31.025 7.41662 28.5667 5.64995 25.5 4.74995C25.2334 4.68328 25.025 4.54162 24.875 4.32495C24.725 4.10828 24.65 3.86662 24.65 3.59995C24.65 3.03329 24.875 2.59162 25.325 2.27495C25.775 1.95828 26.25 1.88328 26.75 2.04995ZM29.15 21.9L24.65 17.4V10.9C26.2167 11.6333 27.4417 12.7333 28.325 14.2C29.2084 15.6666 29.65 17.2666 29.65 19C29.65 19.5 29.6084 19.9916 29.525 20.475C29.4417 20.9583 29.3167 21.4333 29.15 21.9ZM20.65 13.4L15.45 8.19995L18.1 5.54995C18.5667 5.08328 19.1084 4.97495 19.725 5.22495C20.3417 5.47495 20.65 5.93329 20.65 6.59995V13.4Z" fill="white"/>

</svg>