<svg width="28" height="28" viewBox="0 0 28 28" fill="none" xmlns="http://www.w3.org/2000/svg">

<path d="M19.25 28C18.4167 28 17.7083 27.7083 17.125 27.125C16.5417 26.5417 16.25 25.8333 16.25 25V3C16.25 2.16667 16.5417 1.45833 17.125 0.875C17.7083 0.291667 18.4167 0 19.25 0H25C25.8333 0 26.5417 0.291667 27.125 0.875C27.7083 1.45833 28 2.16667 28 3V25C28 25.8333 27.7083 26.5417 27.125 27.125C26.5417 27.7083 25.8333 28 25 28H19.25ZM3 28C2.16667 28 1.45833 27.7083 0.875 27.125C0.291667 26.5417 0 25.8333 0 25V3C0 2.16667 0.291667 1.45833 0.875 0.875C1.45833 0.291667 2.16667 0 3 0H8.75C9.58333 0 10.2917 0.291667 10.875 0.875C11.4583 1.45833 11.75 2.16667 11.75 3V25C11.75 25.8333 11.4583 26.5417 10.875 27.125C10.2917 27.7083 9.58333 28 8.75 28H3Z" fill="white"/>

</svg>