<svg width="48" height="48" viewBox="0 0 48 48" fill="none" xmlns="http://www.w3.org/2000/svg">
<g clip-path="url(#clip0_3549_325307)">
<g clip-path="url(#clip1_3549_325307)">
<path d="M22 38H10C8.93913 38 7.92172 37.5786 7.17157 36.8284C6.42143 36.0783 6 35.0609 6 34V14C6 12.9391 6.42143 11.9217 7.17157 11.1716C7.92172 10.4214 8.93913 10 10 10H38C39.0609 10 40.0783 10.4214 40.8284 11.1716C41.5786 11.9217 42 12.9391 42 14V22" stroke="white" stroke-width="3" stroke-linecap="round" stroke-linejoin="round"/>
<path d="M40 28H30C28.8954 28 28 28.8954 28 30V36C28 37.1046 28.8954 38 30 38H40C41.1046 38 42 37.1046 42 36V30C42 28.8954 41.1046 28 40 28Z" stroke="white" stroke-width="3" stroke-linecap="round" stroke-linejoin="round"/>
<path d="M14 18L22 26" stroke="white" stroke-width="3" stroke-linecap="round" stroke-linejoin="round"/>
<path d="M14 24V18H20" stroke="white" stroke-width="3" stroke-linecap="round" stroke-linejoin="round"/>
</g>
</g>
<defs>
<clipPath id="clip0_3549_325307">
<rect width="48" height="48" fill="white"/>
</clipPath>
<clipPath id="clip1_3549_325307">
<rect width="48" height="48" fill="white"/>
</clipPath>
</defs>
</svg>
