<svg width="36" height="41" viewBox="0 0 36 41" fill="none" xmlns="http://www.w3.org/2000/svg">

<path d="M11.9999 28.25V18.95H10.4999C10.1666 18.95 9.88327 18.825 9.64994 18.575C9.41661 18.325 9.29994 18.0167 9.29994 17.65C9.29994 17.3167 9.41661 17.0333 9.64994 16.8C9.88327 16.5667 10.1833 16.45 10.5499 16.45H12.9999C13.4333 16.45 13.7916 16.5917 14.0749 16.875C14.3583 17.1583 14.4999 17.5167 14.4999 17.95V28.3C14.4999 28.6333 14.3833 28.9167 14.1499 29.15C13.9166 29.3833 13.6166 29.5 13.2499 29.5C12.8833 29.5 12.5833 29.3833 12.3499 29.15C12.1166 28.9167 11.9999 28.6167 11.9999 28.25ZM19.3499 29.5C18.7166 29.5 18.1916 29.2917 17.7749 28.875C17.3583 28.4583 17.1499 27.9333 17.1499 27.3V18.7C17.1499 18.0667 17.3583 17.5333 17.7749 17.1C18.1916 16.6667 18.7166 16.45 19.3499 16.45H23.4999C24.1333 16.45 24.6583 16.6583 25.0749 17.075C25.4916 17.4917 25.6999 18.0167 25.6999 18.65V27.3C25.6999 27.9333 25.4916 28.4583 25.0749 28.875C24.6583 29.2917 24.1333 29.5 23.4999 29.5H19.3499ZM19.6499 27H23.1999V18.95H19.6499V27ZM3.04994 24.5C3.41661 28.3333 5.01661 31.5417 7.84994 34.125C10.6833 36.7083 14.0666 38 17.9999 38C22.1666 38 25.7083 36.5417 28.6249 33.625C31.5416 30.7083 32.9999 27.1667 32.9999 23C32.9999 18.9667 31.6166 15.5 28.8499 12.6C26.0833 9.7 22.6999 8.16666 18.6999 7.99999V11.95C18.6999 12.2833 18.5499 12.5167 18.2499 12.65C17.9499 12.7833 17.6666 12.7167 17.3999 12.45L11.8999 6.94999C11.7333 6.78333 11.6499 6.59999 11.6499 6.39999C11.6499 6.19999 11.7333 6.01666 11.8999 5.85L17.3999 0.349995C17.6666 0.0833281 17.9499 0.0166616 18.2499 0.149995C18.5499 0.283328 18.6999 0.516661 18.6999 0.849995V4.99999C21.0999 5.09999 23.3499 5.63333 25.4499 6.6C27.5499 7.56666 29.3833 8.86666 30.9499 10.5C32.5166 12.1333 33.7499 14.0167 34.6499 16.15C35.5499 18.2833 35.9999 20.5667 35.9999 23C35.9999 25.5 35.5249 27.8417 34.5749 30.025C33.6249 32.2083 32.3416 34.1083 30.7249 35.725C29.1083 37.3417 27.2083 38.625 25.0249 39.575C22.8416 40.525 20.4999 41 17.9999 41C13.2333 41 9.14161 39.4167 5.72494 36.25C2.30827 33.0833 0.416608 29.1667 0.0499409 24.5C0.0166076 24.1 0.141608 23.75 0.424941 23.45C0.708274 23.15 1.06661 23 1.49994 23C1.89994 23 2.24161 23.1417 2.52494 23.425C2.80827 23.7083 2.98327 24.0667 3.04994 24.5Z" fill="white"/>

</svg>