<svg width="24" height="24" viewBox="0 0 24 24" fill="none" xmlns="http://www.w3.org/2000/svg">

<path d="M12 24C18.6274 24 24 18.6274 24 12C24 5.37258 18.6274 0 12 0C5.37258 0 0 5.37258 0 12C0 18.6274 5.37258 24 12 24Z" fill="white"/>

<path d="M7.89282 7.92007V15.4631C7.89296 15.5753 7.92175 15.6856 7.97644 15.7835C8.03113 15.8815 8.10991 15.9639 8.20535 16.0229C8.30079 16.0818 8.40974 16.1155 8.52182 16.1206C8.6339 16.1257 8.74541 16.1021 8.84583 16.0521L16.1288 12.4111C16.2368 12.357 16.3278 12.2742 16.3919 12.1719C16.456 12.0696 16.4908 11.9517 16.4925 11.8309C16.4941 11.7102 16.4626 11.5913 16.4013 11.4873C16.34 11.3833 16.2513 11.2981 16.1448 11.2411L8.86282 7.34107C8.76257 7.2874 8.65015 7.26059 8.53647 7.26324C8.42278 7.26589 8.31169 7.29792 8.21405 7.35621C8.11641 7.41449 8.03551 7.49705 7.97922 7.59585C7.92293 7.69466 7.89317 7.80636 7.89282 7.92007Z" fill="#E93035"/>

</svg>